PathFileType	4	(X/Y/Z)	Kaydara																																																																																																																									
DataRate	CameraRate	NumFrames	NumMarkers	Units	OrigDataRate	OrigDataStartFrame	OrigNumFrames																																																																																																																					
30	30	6	41	mm	30	45	176																																																																																																																					
Frame#	Time	SALE_LFHD			SALE_RFHD			SALE_LBHD			SALE_RBHD			SALE_LFTShould			SALE_RFTShould			SALE_LRRShould			SALE_RRRShould			SALE_T10			SALE_STRN			SALE_TRUN			SALE_LSHO			SALE_LUPA			SALE_LELB			SALE_LFRM			SALE_LWRA			SALE_LWRB			SALE_LFIN			SALE_RSHO			SALE_RUPA			SALE_RELB			SALE_RFRM			SALE_RWRB			SALE_RFIN			SALE_LFWT			SALE_RFWT			SALE_LBWT			SALE_RBWT			SALE_LTHI			SALE_LKNE			SALE_RWRA			SALE_LSHN			SALE_LANK			SALE_LHEE			SALE_LTOE			SALE_RTHI			SALE_RKNE			SALE_RSHN			SALE_RANK			SALE_RHEE			SALE_RTOE		
		X1	Y1	Z1	X2	Y2	Z2	X3	Y3	Z3	X4	Y4	Z4	X5	Y5	Z5	X6	Y6	Z6	X7	Y7	Z7	X8	Y8	Z8	X9	Y9	Z9	X10	Y10	Z10	X11	Y11	Z11	X12	Y12	Z12	X13	Y13	Z13	X14	Y14	Z14	X15	Y15	Z15	X16	Y16	Z16	X17	Y17	Z17	X18	Y18	Z18	X19	Y19	Z19	X20	Y20	Z20	X21	Y21	Z21	X22	Y22	Z22	X23	Y23	Z23	X24	Y24	Z24	X25	Y25	Z25	X26	Y26	Z26	X27	Y27	Z27	X28	Y28	Z28	X29	Y29	Z29	X30	Y30	Z30	X31	Y31	Z31	X32	Y32	Z32	X33	Y33	Z33	X34	Y34	Z34	X35	Y35	Z35	X36	Y36	Z36	X37	Y37	Z37	X38	Y38	Z38	X39	Y39	Z39	X40	Y40	Z40	X41	Y41	Z41
																																																																																																																												
45	1.477	230.19209	1653.09753	-1992.31659	230.72832	1642.07321	-2127.64023	98.34471	1650.30838	-1996.95587	103.65732	1637.86072	-2124.83398	244.5577	1398.50525	-2037.11395	102.35949	1395.31891	-2038.51776	237.34631	1445.05783	-2154.97635	87.78599	1450.86197	-2149.32007	161.6172	1289.45786	-2212.39288	168.35648	1328.55499	-1984.52225	165.0087	1244.63547	-1938.66241	358.41747	1418.06259	-2111.09344	399.8317	1201.76468	-2118.49884	385.35622	1093.11272	-2133.1926	421.54171	990.32082	-2107.42783	374.10522	851.38725	-2033.04428	434.16279	845.94643	-2080.05493	437.62436	802.24274	-2031.07727	-4.56572	1420.61371	-2105.53345	-36.30381	1190.96458	-2163.90564	-77.56401	1094.58229	-2121.66031	-75.09946	981.17325	-2126.87363	-107.98438	845.35675	-2080.849	-129.8112	811.26404	-2026.42502	293.1039	976.16142	-1996.91666	14.19311	975.03159	-2014.05182	244.20761	1043.83781	-2165.00336	67.43882	1048.19595	-2176.3269	295.20216	676.60713	-2163.5083	280.8646	506.15704	-2086.18149	-74.61589	859.97124	-2018.00797	275.3334	308.90785	-2088.21762	269.66057	124.42063	-2136.38535	230.28265	75.32082	-2198.77182	243.42125	86.56782	-2001.70212	10.32556	723.03238	-2168.61404	33.60691	563.94638	-2063.80386	86.36903	375.5056	-2080.85846	40.41282	123.07877	-2131.93298	83.33698	61.8904	-2203.853	56.09018	79.02506	-2011.94412
46	1.51	230.55216	1653.15445	-1992.50229	230.7057	1642.2641	-2127.76123	98.48205	1650.54382	-1996.95328	103.63362	1638.25073	-2124.75876	244.46644	1398.70789	-2037.45758	102.32305	1395.55695	-2038.46481	237.03136	1445.35995	-2155.21896	87.48927	1451.20911	-2149.19998	161.10975	1289.91791	-2212.8067	168.25476	1328.63144	-1984.70337	165.07298	1244.63547	-1939.06891	358.2201	1418.2254	-2111.38763	398.87817	1201.84547	-2118.8884	383.86894	1092.7446	-2132.96753	419.30595	990.06432	-2106.01364	370.46982	852.58873	-2029.6109	430.68115	845.9343	-2076.30127	433.86177	803.20709	-2026.7717	-4.8322	1420.96558	-2105.2182	-36.43964	1191.51001	-2164.32007	-77.5237	1094.91982	-2122.36618	-74.91143	981.54335	-2128.10867	-107.74738	845.37529	-2082.69211	-129.1906	811.06461	-2028.38455	293.19004	976.17905	-1998.66608	14.15813	974.85641	-2014.9939	243.87671	1044.21005	-2166.37283	67.06639	1048.47122	-2177.20871	295.13981	676.50909	-2164.84131	280.86441	506.21941	-2086.90628	-74.09774	859.80164	-2019.93301	275.30003	308.94547	-2088.68195	269.66589	124.42563	-2136.3765	230.34409	75.31354	-2198.79181	243.55558	86.58651	-2001.74301	10.44005	723.09013	-2169.60114	33.58236	564.00848	-2064.4693	86.33749	375.60215	-2081.29272	40.48772	123.02642	-2131.97189	83.37359	61.83358	-2203.89603	56.09843	79.10544	-2012.03033
47	1.543	230.61399	1653.13263	-1992.65137	230.68699	1642.33246	-2128.0098	98.7867	1650.82855	-1996.89407	103.589	1638.49945	-2124.74579	244.33496	1398.79715	-2037.67639	102.13633	1395.77499	-2038.34518	236.64921	1445.68649	-2155.36789	87.17613	1451.54434	-2148.96942	160.61661	1290.39673	-2213.14529	168.24709	1328.68637	-1984.87762	165.07952	1244.53293	-1939.42047	357.95238	1418.21991	-2111.53137	397.9665	1201.91307	-2119.84756	382.44858	1092.96135	-2134.16885	416.66035	989.33578	-2104.54514	366.8845	854.2263	-2025.75073	425.33535	844.74808	-2071.52893	429.83574	804.59633	-2021.78024	-5.13173	1421.25122	-2104.84512	-36.58067	1191.99883	-2164.71466	-77.31141	1095.09384	-2123.07327	-74.49879	981.77315	-2129.20959	-106.95255	845.41275	-2084.40872	-128.2963	810.76782	-2030.05081	293.20915	976.20178	-2000.02991	14.28197	974.88907	-2016.16501	243.63802	1044.53819	-2167.61612	66.76853	1048.7661	-2178.20511	295.02253	676.4286	-2165.90561	280.92619	506.37676	-2087.33765	-73.23418	859.44702	-2021.45279	275.23958	308.94489	-2088.9476	269.69254	124.38615	-2136.3295	230.36367	75.33545	-2198.83835	243.73199	86.65185	-2001.83044	10.43558	723.09822	-2170.63568	33.4737	564.0736	-2065.25452	86.39278	375.67738	-2081.87012	40.49703	123.03618	-2132.00577	83.36867	61.7438	-2203.97263	56.12221	79.19296	-2012.10297
48	1.577	230.82153	1653.30261	-1992.97211	230.54533	1642.34482	-2128.27881	99.0006	1651.02768	-1996.875	103.51001	1638.57849	-2124.7403	244.25615	1398.88977	-2037.86987	101.99036	1395.9079	-2038.1897	236.30934	1445.97427	-2155.48157	86.82107	1451.86371	-2148.73413	160.16815	1290.88257	-2213.46802	168.18178	1328.64044	-1985.02945	165.16041	1244.36256	-1939.83734	357.73857	1418.4845	-2112.18094	397.02812	1201.98685	-2121.01822	380.99968	1092.9641	-2135.31937	414.06105	988.90999	-2103.1752	362.92309	856.19232	-2022.14783	421.65867	845.38811	-2067.54028	425.48019	806.14868	-2016.58966	-5.38527	1421.43036	-2104.46747	-36.62629	1192.4176	-2165.07645	-77.03268	1095.24651	-2123.71841	-73.9026	981.92139	-2130.20782	-105.9388	845.45578	-2085.54337	-127.0578	810.51674	-2031.33606	293.21404	976.32141	-2001.42365	14.24059	974.81674	-2017.02225	243.47706	1044.81903	-2168.69247	66.63763	1048.8768	-2179.06357	295.09966	676.57219	-2166.89407	280.82502	506.37348	-2087.47879	-71.85019	859.46663	-2022.58713	275.16798	308.91651	-2089.01947	269.75155	124.42293	-2136.21109	230.44258	75.37236	-2198.82797	243.8365	86.6923	-2001.89514	10.35872	723.08624	-2171.59882	33.36832	564.12323	-2065.96191	86.34669	375.74574	-2082.18872	40.51306	123.01553	-2131.88812	83.3734	61.71206	-2204.05197	56.13935	79.26631	-2012.21191
49	1.61	230.68956	1653.45016	-1993.11615	230.35091	1642.44186	-2128.48114	98.86766	1651.20789	-1996.95908	103.27009	1638.71292	-2124.73221	244.10397	1398.97202	-2037.99164	101.89578	1396.01013	-2038.09875	236.08677	1446.31607	-2155.61981	86.57013	1452.1582	-2148.53561	159.76648	1291.33148	-2213.80646	168.09584	1328.63068	-1985.14038	165.19808	1244.21059	-1940.26505	357.48665	1418.72147	-2112.59064	396.06041	1202.07642	-2121.94611	379.65534	1093.02795	-2136.27121	411.58363	988.63754	-2101.73584	359.47117	858.22357	-2018.7381	418.11104	845.88844	-2063.74786	421.4378	807.75803	-2011.98044	-5.61979	1421.67755	-2104.18091	-36.63746	1192.75162	-2165.30563	-76.63016	1095.37247	-2124.08417	-73.25655	982.04689	-2130.85373	-104.99855	845.45616	-2086.52557	-125.73344	810.30197	-2032.29874	293.0518	976.46988	-2002.17499	14.09201	974.78691	-2018.14621	243.37217	1044.96841	-2169.6611	66.68681	1048.75061	-2179.82254	295.13355	676.48384	-2167.17819	280.64686	506.45683	-2087.38571	-70.78613	859.51973	-2023.67035	275.06937	308.90341	-2088.98834	269.77634	124.44242	-2136.21002	230.45444	75.39249	-2198.84247	243.84884	86.72399	-2001.90552	10.25709	723.13751	-2172.54913	33.23446	564.16851	-2066.53	86.31851	375.78911	-2082.44751	40.48485	123.03019	-2131.84616	83.32332	61.6689	-2204.13254	56.12039	79.29876	-2012.26257
50	1.643	230.51159	1653.48175	-1993.11691	230.09586	1642.58392	-2128.53119	98.80733	1651.28067	-1996.84464	103.03229	1638.83453	-2124.7406	244.09367	1399.12415	-2038.23898	101.76147	1396.19049	-2038.06335	235.82859	1446.56586	-2155.72342	86.30918	1452.37869	-2148.50327	159.47649	1291.68991	-2214.10522	168.08708	1328.65723	-1985.32898	165.13634	1244.14345	-1940.55176	357.2908	1418.87787	-2112.77847	395.30331	1202.10632	-2122.35886	378.54954	1093.06946	-2136.70349	409.669	988.59444	-2100.63568	356.03531	859.70345	-2016.16196	415.06588	846.32622	-2060.53726	417.87659	809.05777	-2008.22998	-5.81406	1421.8486	-2104.06738	-36.68254	1192.99377	-2165.49911	-76.28131	1095.43579	-2124.34097	-72.59728	982.14493	-2131.27701	-103.93937	845.41382	-2087.1759	-124.34678	810.04738	-2032.8244	292.89711	976.57379	-2003.1691	13.93407	974.98726	-2019.00864	243.25848	1045.01587	-2170.43671	66.62602	1048.7616	-2180.77072	295.15503	676.41502	-2167.32025	280.53345	506.50131	-2087.32742	-69.78831	859.36348	-2024.28207	274.93425	308.94131	-2088.91754	269.76854	124.45096	-2136.21674	230.49572	75.38727	-2198.87787	243.86694	86.74648	-2001.93329	10.31727	723.12286	-2173.29697	33.09229	564.24404	-2067.08069	86.28286	375.87929	-2082.66617	40.51279	123.03967	-2131.80618	83.32509	61.61891	-2204.16473	56.08817	79.37302	-2012.32559
